<svg xmlns="http://www.w3.org/2000/svg" xmlns:xlink="http://www.w3.org/1999/xlink" width="500" zoomAndPan="magnify" viewBox="0 0 375 374.999991" height="500" preserveAspectRatio="xMidYMid meet" version="1.0"><defs><clipPath id="99063ceb13"><path d="M 204.574219 178.386719 L 221.753906 178.386719 L 221.753906 196.613281 L 204.574219 196.613281 Z M 204.574219 178.386719 " clip-rule="nonzero"/></clipPath><clipPath id="9cbddd036c"><path d="M 66.5625 66.5625 L 308.8125 66.5625 L 308.8125 308.8125 L 66.5625 308.8125 Z M 66.5625 66.5625 " clip-rule="nonzero"/></clipPath></defs><g clip-path="url(#99063ceb13)"><path fill="#000000" d="M 204.574219 178.386719 L 221.753906 178.386719 L 221.753906 196.636719 L 204.574219 196.636719 Z M 204.574219 178.386719 " fill-opacity="1" fill-rule="nonzero"/></g><g clip-path="url(#9cbddd036c)"><path fill="#000000" d="M 284.578125 163.460938 L 211.8125 163.460938 L 211.8125 90.792969 C 211.8125 77.425781 200.957031 66.570312 187.585938 66.570312 C 174.21875 66.570312 163.359375 77.425781 163.359375 90.792969 L 163.359375 163.464844 L 90.792969 163.460938 C 77.421875 163.460938 66.570312 174.316406 66.570312 187.683594 C 66.570312 201.054688 77.421875 211.910156 90.792969 211.910156 L 163.367188 211.910156 L 163.367188 284.582031 C 163.367188 297.953125 174.222656 308.804688 187.59375 308.804688 C 200.960938 308.804688 211.816406 297.953125 211.816406 284.582031 L 211.816406 211.910156 L 284.578125 211.910156 C 297.949219 211.910156 308.800781 201.054688 308.800781 187.683594 C 308.800781 174.316406 297.949219 163.460938 284.578125 163.460938 Z M 284.578125 163.460938 " fill-opacity="1" fill-rule="evenodd"/></g></svg>