<svg xmlns="http://www.w3.org/2000/svg" xmlns:xlink="http://www.w3.org/1999/xlink" width="500" zoomAndPan="magnify" viewBox="0 0 375 374.999991" height="500" preserveAspectRatio="xMidYMid meet" version="1.0"><defs><clipPath id="7c7b40b698"><path d="M 61.523438 108 L 261 108 L 261 308 L 61.523438 308 Z M 61.523438 108 " clip-rule="nonzero"/></clipPath><clipPath id="bcdd931989"><path d="M 230.238281 137.011719 L 247.417969 137.011719 L 247.417969 155.234375 L 230.238281 155.234375 Z M 230.238281 137.011719 " clip-rule="nonzero"/></clipPath></defs><path fill="#000000" d="M 308.574219 93.308594 L 286.15625 70.890625 C 283.84375 68.570312 280.800781 67.410156 277.761719 67.410156 C 274.722656 67.410156 271.683594 68.566406 269.371094 70.882812 L 251.4375 88.789062 L 290.644531 127.984375 L 308.574219 110.082031 C 313.210938 105.445312 313.210938 97.929688 308.574219 93.308594 Z M 308.574219 93.308594 " fill-opacity="1" fill-rule="nonzero"/><path fill="#000000" d="M 135.03125 205.140625 L 174.242188 244.339844 L 282.25 136.382812 L 243.039062 97.183594 Z M 135.03125 205.140625 " fill-opacity="1" fill-rule="nonzero"/><path fill="#000000" d="M 126.566406 213.527344 L 118.195312 261.078125 L 165.777344 252.722656 Z M 126.566406 213.527344 " fill-opacity="1" fill-rule="nonzero"/><g clip-path="url(#7c7b40b698)"><path fill="#000000" d="M 234.960938 282.265625 L 87.117188 282.265625 L 87.117188 134.222656 L 191.453125 134.222656 L 217.167969 108.527344 L 78.050781 108.527344 C 68.917969 108.527344 61.453125 116.003906 61.453125 125.144531 L 61.453125 291.347656 C 61.453125 300.492188 68.917969 307.96875 78.050781 307.96875 L 244.027344 307.96875 C 253.15625 307.96875 260.625 300.492188 260.625 291.347656 L 260.625 172.519531 L 234.960938 198.171875 Z M 234.960938 282.265625 " fill-opacity="1" fill-rule="nonzero"/></g><g clip-path="url(#bcdd931989)"><path fill="#000000" d="M 230.238281 137.011719 L 247.417969 137.011719 L 247.417969 155.261719 L 230.238281 155.261719 Z M 230.238281 137.011719 " fill-opacity="1" fill-rule="nonzero"/></g></svg>