<svg xmlns="http://www.w3.org/2000/svg" xmlns:xlink="http://www.w3.org/1999/xlink" width="500" zoomAndPan="magnify" viewBox="0 0 375 374.999991" height="500" preserveAspectRatio="xMidYMid meet" version="1.0"><defs><clipPath id="1195ba0564"><path d="M 38 130 L 264 130 L 264 308.8125 L 38 308.8125 Z M 38 130 " clip-rule="nonzero"/></clipPath><clipPath id="c78da74db7"><path d="M 127 66.5625 L 337 66.5625 L 337 245 L 127 245 Z M 127 66.5625 " clip-rule="nonzero"/></clipPath><clipPath id="9de35cc9ae"><path d="M 284.183594 194.625 L 301.363281 194.625 L 301.363281 212.847656 L 284.183594 212.847656 Z M 284.183594 194.625 " clip-rule="nonzero"/></clipPath></defs><g clip-path="url(#1195ba0564)"><path fill="#000000" d="M 250.074219 259.476562 C 247.613281 256.214844 243 255.535156 239.703125 257.953125 C 224.757812 268.929688 207.054688 274.730469 188.507812 274.730469 C 166.660156 274.730469 145.765625 266.53125 129.683594 251.640625 C 114.699219 237.765625 105.132812 219.28125 102.46875 199.230469 L 124.640625 199.21875 C 127.445312 199.21875 130.007812 197.644531 131.285156 195.148438 C 132.558594 192.648438 132.328125 189.644531 130.6875 187.371094 L 92.070312 133.832031 C 90.683594 131.90625 88.46875 130.757812 86.097656 130.734375 C 83.734375 130.710938 81.492188 131.8125 80.0625 133.703125 L 39.699219 187.273438 C 37.996094 189.535156 37.714844 192.570312 38.976562 195.109375 C 40.242188 197.644531 42.828125 199.246094 45.65625 199.246094 C 45.660156 199.246094 45.660156 199.246094 45.660156 199.246094 L 68.296875 199.234375 C 74.136719 260.964844 126.3125 308.816406 188.59375 308.816406 C 214.464844 308.816406 239.179688 300.675781 260.066406 285.28125 C 261.671875 284.09375 262.738281 282.316406 263.023438 280.339844 C 263.3125 278.363281 262.800781 276.351562 261.597656 274.757812 Z M 250.074219 259.476562 " fill-opacity="1" fill-rule="nonzero"/></g><g clip-path="url(#c78da74db7)"><path fill="#000000" d="M 335.988281 180.226562 C 334.714844 177.726562 332.148438 176.15625 329.347656 176.152344 L 308.8125 176.140625 C 302.960938 114.414062 250.824219 66.558594 188.5 66.558594 C 168.742188 66.558594 149.019531 71.546875 131.46875 80.984375 C 129.574219 82.003906 128.207031 83.796875 127.726562 85.894531 C 127.242188 87.996094 127.691406 90.203125 128.949219 91.949219 L 140.226562 107.578125 C 142.375 110.550781 146.355469 111.527344 149.628906 109.878906 C 161.628906 103.835938 175.113281 100.640625 188.621094 100.640625 C 210.464844 100.640625 231.347656 108.839844 247.425781 123.726562 C 262.402344 137.597656 271.972656 156.082031 274.640625 176.140625 L 250.367188 176.125 C 250.367188 176.125 250.363281 176.125 250.363281 176.125 C 247.53125 176.125 244.949219 177.730469 243.683594 180.265625 C 242.421875 182.804688 242.703125 185.839844 244.40625 188.101562 L 284.773438 241.65625 C 286.183594 243.527344 288.390625 244.625 290.726562 244.625 C 290.753906 244.625 290.777344 244.625 290.804688 244.625 C 293.171875 244.601562 295.386719 243.453125 296.773438 241.53125 L 335.390625 188.003906 C 337.03125 185.730469 337.261719 182.726562 335.988281 180.226562 Z M 335.988281 180.226562 " fill-opacity="1" fill-rule="nonzero"/></g><g clip-path="url(#9de35cc9ae)"><path fill="#000000" d="M 284.183594 194.625 L 301.363281 194.625 L 301.363281 212.875 L 284.183594 212.875 Z M 284.183594 194.625 " fill-opacity="1" fill-rule="nonzero"/></g></svg>