<svg xmlns="http://www.w3.org/2000/svg" xmlns:xlink="http://www.w3.org/1999/xlink" width="500" zoomAndPan="magnify" viewBox="0 0 375 374.999991" height="500" preserveAspectRatio="xMidYMid meet" version="1.0"><defs><clipPath id="91c3c7a268"><path d="M 244 320 L 261 320 L 261 337.578125 L 244 337.578125 Z M 244 320 " clip-rule="nonzero"/></clipPath><clipPath id="3a83909ee9"><path d="M 161.3125 174 L 178 174 L 178 192 L 161.3125 192 Z M 161.3125 174 " clip-rule="nonzero"/></clipPath><clipPath id="13dde1c44a"><path d="M 213 101.328125 L 223 101.328125 L 223 110 L 213 110 Z M 213 101.328125 " clip-rule="nonzero"/></clipPath><clipPath id="ce5e69b856"><path d="M 158.132812 167.0625 L 184.523438 167.0625 L 184.523438 193.609375 L 158.132812 193.609375 Z M 158.132812 167.0625 " clip-rule="nonzero"/></clipPath><clipPath id="d61657398a"><path d="M 163.457031 301.652344 L 189.851562 301.652344 L 189.851562 328.203125 L 163.457031 328.203125 Z M 163.457031 301.652344 " clip-rule="nonzero"/></clipPath><clipPath id="914c1a15b8"><path d="M 239.445312 313.175781 L 265.835938 313.175781 L 265.835938 339.722656 L 239.445312 339.722656 Z M 239.445312 313.175781 " clip-rule="nonzero"/></clipPath><clipPath id="e328946c4c"><path d="M 348.609375 185.449219 L 375 185.449219 L 375 211.996094 L 348.609375 211.996094 Z M 348.609375 185.449219 " clip-rule="nonzero"/></clipPath><clipPath id="ab6764f1e1"><path d="M 348.609375 299.902344 L 375 299.902344 L 375 326.449219 L 348.609375 326.449219 Z M 348.609375 299.902344 " clip-rule="nonzero"/></clipPath><clipPath id="b67bb2a179"><path d="M 306.878906 101.328125 L 333.273438 101.328125 L 333.273438 127.875 L 306.878906 127.875 Z M 306.878906 101.328125 " clip-rule="nonzero"/></clipPath><clipPath id="9b9412143c"><path d="M 332 127 L 363 127 L 363 159 L 332 159 Z M 332 127 " clip-rule="nonzero"/></clipPath><clipPath id="8282e14b56"><path d="M 336.476562 127.875 L 362.554688 131.933594 L 358.472656 158.164062 L 332.394531 154.109375 Z M 336.476562 127.875 " clip-rule="nonzero"/></clipPath><clipPath id="025b40e864"><path d="M 360 132 L 375 132 L 375 165 L 360 165 Z M 360 132 " clip-rule="nonzero"/></clipPath><clipPath id="40909d8374"><path d="M 366.882812 132.574219 L 392.511719 138.882812 L 386.164062 164.664062 L 360.535156 158.351562 Z M 366.882812 132.574219 " clip-rule="nonzero"/></clipPath><clipPath id="5d9660321e"><path d="M 346 127 L 375 127 L 375 159 L 346 159 Z M 346 127 " clip-rule="nonzero"/></clipPath><clipPath id="b560023093"><path d="M 350.445312 127.875 L 376.523438 131.933594 L 372.441406 158.164062 L 346.363281 154.109375 Z M 350.445312 127.875 " clip-rule="nonzero"/></clipPath></defs><path fill="#60636a" d="M 242.085938 142.003906 L 176.335938 243.339844 L 190.101562 291.640625 L 262.941406 177.058594 Z M 242.085938 142.003906 " fill-opacity="1" fill-rule="nonzero"/><path fill="#60636a" d="M 218.203125 257.722656 L 194.15625 295.546875 L 337.230469 295.546875 L 359.644531 257.722656 Z M 218.203125 257.722656 " fill-opacity="1" fill-rule="nonzero"/><g clip-path="url(#91c3c7a268)"><path fill="#60636a" d="M 252.359375 320.777344 C 247.796875 320.777344 244.082031 324.492188 244.082031 329.054688 C 244.082031 333.621094 247.796875 337.332031 252.359375 337.332031 C 256.925781 337.332031 260.636719 333.621094 260.636719 329.054688 C 260.636719 324.492188 256.925781 320.777344 252.359375 320.777344 Z M 252.359375 320.777344 " fill-opacity="1" fill-rule="nonzero"/></g><path fill="#60636a" d="M 359.550781 252.207031 L 290.273438 139.539062 L 247.042969 139.539062 L 314.070312 252.207031 Z M 359.550781 252.207031 " fill-opacity="1" fill-rule="nonzero"/><g clip-path="url(#3a83909ee9)"><path fill="#60636a" d="M 169.589844 174.550781 C 165.027344 174.550781 161.3125 178.261719 161.3125 182.828125 C 161.3125 187.390625 165.027344 191.105469 169.589844 191.105469 C 174.152344 191.105469 177.867188 187.390625 177.867188 182.828125 C 177.867188 178.261719 174.152344 174.550781 169.589844 174.550781 Z M 169.589844 174.550781 " fill-opacity="1" fill-rule="nonzero"/></g><path fill="#60636a" d="M 373.757812 144.203125 C 373.757812 138.117188 368.804688 133.164062 362.71875 133.164062 C 356.636719 133.164062 351.683594 138.117188 351.683594 144.203125 C 351.683594 150.285156 356.636719 155.238281 362.71875 155.238281 C 368.804688 155.238281 373.757812 150.285156 373.757812 144.203125 Z M 373.757812 144.203125 " fill-opacity="1" fill-rule="nonzero"/><path fill="#60636a" d="M 325.472656 122.128906 C 327.757812 122.128906 329.613281 120.277344 329.613281 117.992188 C 329.613281 115.703125 327.757812 113.851562 325.472656 113.851562 C 323.1875 113.851562 321.335938 115.703125 321.335938 117.992188 C 321.335938 120.277344 323.1875 122.128906 325.472656 122.128906 Z M 325.472656 122.128906 " fill-opacity="1" fill-rule="nonzero"/><g clip-path="url(#13dde1c44a)"><path fill="#60636a" d="M 217.871094 109.714844 C 220.15625 109.714844 222.011719 107.859375 222.011719 105.574219 C 222.011719 103.289062 220.15625 101.4375 217.871094 101.4375 C 215.585938 101.4375 213.734375 103.289062 213.734375 105.574219 C 213.734375 107.859375 215.585938 109.714844 217.871094 109.714844 Z M 217.871094 109.714844 " fill-opacity="1" fill-rule="nonzero"/></g><path fill="#60636a" d="M 170.96875 138.683594 C 173.253906 138.683594 175.109375 136.832031 175.109375 134.542969 C 175.109375 132.257812 173.253906 130.40625 170.96875 130.40625 C 168.683594 130.40625 166.832031 132.257812 166.832031 134.542969 C 166.832031 136.832031 168.683594 138.683594 170.96875 138.683594 Z M 170.96875 138.683594 " fill-opacity="1" fill-rule="nonzero"/><path fill="#60636a" d="M 372.378906 202.140625 C 374.664062 202.140625 376.515625 200.289062 376.515625 198.003906 C 376.515625 195.714844 374.664062 193.863281 372.378906 193.863281 C 370.089844 193.863281 368.238281 195.714844 368.238281 198.003906 C 368.238281 200.289062 370.089844 202.140625 372.378906 202.140625 Z M 372.378906 202.140625 " fill-opacity="1" fill-rule="nonzero"/><path fill="#60636a" d="M 372.378906 318.019531 C 374.664062 318.019531 376.515625 316.167969 376.515625 313.878906 C 376.515625 311.59375 374.664062 309.742188 372.378906 309.742188 C 370.089844 309.742188 368.238281 311.59375 368.238281 313.878906 C 368.238281 316.167969 370.089844 318.019531 372.378906 318.019531 Z M 372.378906 318.019531 " fill-opacity="1" fill-rule="nonzero"/><path fill="#60636a" d="M 168.210938 323.539062 C 170.496094 323.539062 172.347656 321.683594 172.347656 319.398438 C 172.347656 317.113281 170.496094 315.261719 168.210938 315.261719 C 165.925781 315.261719 164.070312 317.113281 164.070312 319.398438 C 164.070312 321.683594 165.925781 323.539062 168.210938 323.539062 Z M 168.210938 323.539062 " fill-opacity="1" fill-rule="nonzero"/><g clip-path="url(#ce5e69b856)"><path fill="#ffffff" d="M 158.132812 167.0625 L 184.523438 167.0625 L 184.523438 193.660156 L 158.132812 193.660156 Z M 158.132812 167.0625 " fill-opacity="1" fill-rule="nonzero"/></g><g clip-path="url(#d61657398a)"><path fill="#ffffff" d="M 163.457031 301.652344 L 189.851562 301.652344 L 189.851562 328.25 L 163.457031 328.25 Z M 163.457031 301.652344 " fill-opacity="1" fill-rule="nonzero"/></g><g clip-path="url(#914c1a15b8)"><path fill="#ffffff" d="M 239.445312 313.175781 L 265.835938 313.175781 L 265.835938 339.773438 L 239.445312 339.773438 Z M 239.445312 313.175781 " fill-opacity="1" fill-rule="nonzero"/></g><g clip-path="url(#e328946c4c)"><path fill="#ffffff" d="M 348.609375 185.449219 L 375 185.449219 L 375 212.046875 L 348.609375 212.046875 Z M 348.609375 185.449219 " fill-opacity="1" fill-rule="nonzero"/></g><g clip-path="url(#ab6764f1e1)"><path fill="#ffffff" d="M 348.609375 299.902344 L 375 299.902344 L 375 326.5 L 348.609375 326.5 Z M 348.609375 299.902344 " fill-opacity="1" fill-rule="nonzero"/></g><g clip-path="url(#b67bb2a179)"><path fill="#ffffff" d="M 306.878906 101.328125 L 333.273438 101.328125 L 333.273438 127.925781 L 306.878906 127.925781 Z M 306.878906 101.328125 " fill-opacity="1" fill-rule="nonzero"/></g><g clip-path="url(#9b9412143c)"><g clip-path="url(#8282e14b56)"><path fill="#ffffff" d="M 336.476562 127.875 L 362.554688 131.933594 L 358.464844 158.214844 L 332.386719 154.160156 Z M 336.476562 127.875 " fill-opacity="1" fill-rule="nonzero"/></g></g><g clip-path="url(#025b40e864)"><g clip-path="url(#40909d8374)"><path fill="#ffffff" d="M 366.882812 132.574219 L 392.511719 138.882812 L 386.152344 164.710938 L 360.523438 158.402344 Z M 366.882812 132.574219 " fill-opacity="1" fill-rule="nonzero"/></g></g><g clip-path="url(#5d9660321e)"><g clip-path="url(#b560023093)"><path fill="#ffffff" d="M 350.445312 127.875 L 376.523438 131.933594 L 372.433594 158.214844 L 346.355469 154.160156 Z M 350.445312 127.875 " fill-opacity="1" fill-rule="nonzero"/></g></g><path fill="#276fbf" d="M 233.554688 86.496094 C 235.503906 90.390625 233.96875 95.050781 230.132812 97.058594 C 206.53125 109.390625 182.984375 124.675781 164.574219 139.664062 C 139.496094 160.019531 117.191406 183.566406 98.132812 209.765625 C 95.59375 213.246094 90.753906 214.070312 87.15625 211.59375 C 83.496094 209.054688 82.671875 204.039062 85.269531 200.441406 C 105.152344 173.121094 128.402344 148.574219 154.542969 127.328125 C 179.503906 107.03125 205.941406 91.804688 222.816406 82.953125 C 226.710938 80.949219 231.609375 82.542969 233.554688 86.496094 Z M 233.554688 86.496094 " fill-opacity="1" fill-rule="nonzero"/><path fill="#276fbf" d="M 359.1875 39.582031 C 355.230469 35.628906 350.867188 32.503906 346.382812 29.90625 C 341.894531 27.308594 337.292969 25.246094 332.632812 23.472656 C 327.96875 21.703125 323.25 20.347656 318.527344 19.167969 C 313.808594 17.988281 309.085938 17.101562 304.367188 16.394531 C 285.425781 13.621094 266.425781 13.855469 247.777344 15.980469 C 229.070312 18.105469 210.71875 22.234375 192.839844 28.136719 C 174.960938 34.035156 157.671875 41.648438 141.207031 51.03125 C 133.003906 55.691406 124.980469 60.828125 117.25 66.253906 C 109.519531 71.742188 102.085938 77.644531 94.886719 83.898438 C 87.746094 90.152344 80.960938 96.820312 74.46875 103.785156 C 68.035156 110.746094 61.960938 118.066406 56.175781 125.617188 C 50.453125 133.171875 45.140625 141.019531 40.183594 149.105469 C 37.707031 153.175781 35.347656 157.246094 33.105469 161.378906 C 30.800781 165.507812 28.621094 169.757812 26.613281 174.003906 C 18.351562 191.058594 11.683594 208.878906 7.082031 227.40625 C 5.902344 232.070312 4.898438 236.730469 3.953125 241.394531 C 3.070312 246.113281 2.359375 250.835938 1.710938 255.671875 C 0.472656 265.234375 0 275.027344 0.296875 285 C 0.472656 290.015625 0.886719 295.03125 1.652344 300.105469 C 2.417969 305.179688 3.421875 310.375 5.074219 315.566406 C 5.488281 316.863281 5.902344 318.164062 6.371094 319.519531 L 7.082031 321.46875 L 7.90625 323.472656 C 8.4375 324.773438 9.085938 326.128906 9.675781 327.425781 C 9.972656 328.078125 10.328125 328.726562 10.679688 329.375 C 11.035156 330.023438 11.390625 330.671875 11.742188 331.320312 C 13.21875 333.917969 15.046875 336.515625 17.113281 339.050781 C 19.238281 341.648438 21.480469 343.773438 23.78125 345.78125 C 26.140625 347.726562 28.5 349.496094 30.980469 350.972656 C 33.398438 352.507812 35.878906 353.804688 38.355469 354.984375 C 39.59375 355.574219 40.835938 356.105469 42.074219 356.636719 C 43.3125 357.109375 44.550781 357.640625 45.789062 358.054688 C 48.269531 358.996094 50.746094 359.707031 53.226562 360.414062 C 63.082031 363.070312 72.816406 364.367188 82.433594 364.78125 C 87.214844 365.015625 91.996094 365.015625 96.714844 364.839844 C 101.4375 364.664062 106.097656 364.308594 110.757812 363.835938 C 120.023438 362.832031 129.171875 361.238281 138.199219 359.175781 C 147.167969 357.050781 155.960938 354.511719 164.574219 351.445312 C 173.191406 348.433594 181.570312 344.894531 189.773438 341 C 206.117188 333.210938 221.519531 323.828125 235.5625 312.792969 C 204.699219 330.378906 144.867188 352.859375 100.195312 347.019531 C 122.972656 344.480469 145.042969 335.984375 163.511719 322.472656 C 145.398438 329.078125 126.277344 333.035156 107.042969 334.214844 C 96.007812 334.863281 84.796875 335.453125 73.820312 333.976562 C 64.554688 332.738281 52.046875 329.671875 46.085938 321.882812 C 39.59375 313.382812 42.308594 305.242188 45.789062 296.210938 C 49.566406 286.417969 53.757812 276.738281 58.300781 267.238281 C 67.328125 248.472656 78.71875 229 90.636719 211.949219 L 85.738281 208.289062 C 69.21875 232.011719 53.992188 259.273438 42.957031 286.121094 C 41.601562 289.484375 36.585938 288.421875 36.644531 284.824219 C 36.644531 284.765625 36.644531 284.707031 36.644531 284.648438 C 36.820312 276.917969 37.765625 269.066406 39.121094 261.160156 C 40.539062 253.253906 42.425781 245.40625 44.730469 237.558594 C 49.332031 221.980469 55.527344 206.695312 63.019531 192.0625 C 70.515625 177.488281 79.191406 163.5 89.101562 150.460938 C 94.058594 143.96875 99.253906 137.597656 104.800781 131.578125 C 110.289062 125.558594 116.070312 119.71875 122.089844 114.230469 C 128.109375 108.742188 134.421875 103.488281 140.914062 98.59375 C 147.460938 93.636719 154.25 89.03125 161.210938 84.667969 C 164.691406 82.484375 168.234375 80.417969 171.832031 78.410156 C 175.433594 76.40625 179.03125 74.457031 182.75 72.570312 C 186.46875 70.742188 190.183594 68.910156 193.902344 67.257812 C 195.789062 66.375 197.679688 65.605469 199.566406 64.78125 C 201.457031 64.011719 203.402344 63.1875 205.292969 62.421875 C 209.125 60.886719 213.019531 59.410156 216.914062 58.054688 C 220.808594 56.695312 224.765625 55.398438 228.71875 54.21875 C 236.625 51.796875 244.707031 49.792969 252.792969 48.082031 C 260.9375 46.429688 269.078125 45.128906 277.28125 44.363281 C 285.484375 43.539062 293.6875 43.183594 301.828125 43.476562 C 305.902344 43.597656 309.914062 43.890625 313.867188 44.363281 C 313.925781 44.363281 313.984375 44.363281 314.042969 44.363281 C 319.707031 45.070312 320.0625 53.097656 314.515625 54.394531 C 284.71875 61.359375 255.507812 71.863281 228.363281 85.375 L 231.195312 91.039062 C 256.15625 78.589844 282.472656 68.96875 309.441406 62.125 C 314.164062 60.945312 318.941406 59.824219 323.664062 58.820312 C 327.910156 57.933594 331.570312 56.8125 335.816406 58.40625 C 341.128906 60.414062 344.257812 65.488281 346.851562 70.269531 C 349.625 75.402344 351.808594 80.949219 353.109375 86.613281 C 354.582031 77.703125 352.753906 68.261719 348.152344 60.472656 C 347.207031 58.878906 346.144531 57.34375 344.964844 55.871094 C 352.339844 60.53125 355.527344 67.316406 355.527344 67.316406 C 356.234375 68.792969 356.945312 70.328125 357.535156 71.921875 C 360.367188 79.296875 362.078125 87.558594 363.082031 95.996094 C 364.023438 104.433594 364.261719 113.109375 363.90625 121.839844 C 363.613281 130.574219 362.667969 139.367188 361.488281 148.21875 C 364.96875 140.015625 367.800781 131.519531 370.042969 122.785156 C 372.226562 114.050781 373.878906 105.023438 374.527344 95.820312 C 374.882812 91.214844 375 86.554688 374.765625 81.832031 C 374.585938 77.113281 373.996094 72.332031 373.054688 67.496094 C 372.523438 65.074219 371.929688 62.65625 371.164062 60.238281 C 370.398438 57.816406 369.453125 55.398438 368.390625 53.039062 C 367.269531 50.617188 365.972656 48.316406 364.4375 46.015625 C 362.960938 43.832031 361.132812 41.589844 359.1875 39.582031 Z M 359.1875 39.582031 " fill-opacity="1" fill-rule="nonzero"/><path fill="#276fbf" d="M 113.710938 205.929688 C 111.230469 208.054688 108.042969 208.9375 105.625 207.996094 C 95.710938 203.980469 88.75 197.195312 85.03125 187.8125 C 83.851562 184.863281 85.859375 180.613281 89.574219 178.429688 C 93.292969 176.1875 97.246094 176.835938 98.425781 179.789062 C 101.375 187.105469 106.570312 192.179688 114.359375 195.367188 C 117.425781 196.605469 117.898438 200.441406 115.480469 203.921875 C 115.007812 204.691406 114.417969 205.339844 113.710938 205.929688 Z M 113.710938 205.929688 " fill-opacity="1" fill-rule="nonzero"/><path fill="#276fbf" d="M 131.234375 187.339844 C 128.34375 189.820312 124.566406 190.527344 122.265625 188.875 C 114.300781 183.152344 108.042969 175.714844 103.796875 166.867188 C 102.4375 164.03125 104.269531 159.785156 107.867188 157.425781 C 111.527344 155.0625 115.597656 155.476562 116.957031 158.308594 C 120.671875 165.980469 125.984375 172.351562 132.886719 177.25 C 135.484375 179.078125 135.1875 183.210938 132.238281 186.398438 C 131.945312 186.75 131.589844 187.046875 131.234375 187.339844 Z M 131.234375 187.339844 " fill-opacity="1" fill-rule="nonzero"/><path fill="#276fbf" d="M 152.066406 167.277344 C 148.878906 169.992188 144.6875 170.523438 142.566406 168.398438 C 135.957031 161.730469 129.878906 154.472656 124.507812 146.742188 C 122.738281 144.148438 124.09375 139.898438 127.578125 137.242188 C 131.058594 134.585938 135.308594 134.46875 137.078125 137.066406 C 142.152344 144.382812 147.933594 151.285156 154.191406 157.601562 C 156.371094 159.84375 155.546875 164.03125 152.359375 166.984375 C 152.242188 167.101562 152.125 167.21875 152.066406 167.277344 Z M 152.066406 167.277344 " fill-opacity="1" fill-rule="nonzero"/><path fill="#276fbf" d="M 175.550781 146.921875 C 175.433594 146.980469 175.375 147.097656 175.253906 147.15625 C 171.832031 149.929688 167.585938 150.105469 165.695312 147.628906 C 160.328125 140.488281 154.308594 133.761719 147.816406 127.625 C 145.574219 125.441406 146.28125 121.25 149.46875 118.242188 C 152.65625 115.234375 157.023438 114.523438 159.324219 116.707031 C 166.109375 123.199219 172.421875 130.222656 178.027344 137.714844 C 179.859375 140.074219 178.738281 144.148438 175.550781 146.921875 Z M 175.550781 146.921875 " fill-opacity="1" fill-rule="nonzero"/><path fill="#276fbf" d="M 198.976562 128.804688 C 198.625 129.101562 198.269531 129.335938 197.914062 129.628906 C 194.316406 132.050781 190.183594 131.753906 188.710938 128.980469 C 184.816406 121.488281 179.269531 115.234375 172.246094 110.453125 C 169.648438 108.683594 169.828125 104.550781 172.71875 101.308594 C 175.609375 98.0625 180.035156 96.882812 182.691406 98.652344 C 190.835938 104.199219 197.265625 111.457031 201.808594 120.128906 C 203.109375 122.667969 201.867188 126.328125 198.976562 128.804688 Z M 198.976562 128.804688 " fill-opacity="1" fill-rule="nonzero"/><path fill="#276fbf" d="M 220.398438 113.816406 C 219.6875 114.40625 218.980469 114.9375 218.097656 115.351562 C 214.261719 117.238281 210.542969 116.175781 209.777344 112.992188 C 207.769531 104.847656 203.460938 98.945312 196.675781 94.933594 C 193.902344 93.339844 193.902344 89.328125 196.617188 85.964844 C 199.332031 82.601562 203.816406 81.242188 206.589844 82.835938 C 215.324219 87.910156 221.046875 95.761719 223.582031 106.144531 C 224.234375 108.625 222.875 111.691406 220.398438 113.816406 Z M 220.398438 113.816406 " fill-opacity="1" fill-rule="nonzero"/></svg>
