<svg xmlns="http://www.w3.org/2000/svg" xmlns:xlink="http://www.w3.org/1999/xlink" width="500" zoomAndPan="magnify" viewBox="0 0 375 374.999991" height="500" preserveAspectRatio="xMidYMid meet" version="1.0"><defs><clipPath id="070d8ee7af"><path d="M 38 69.75 L 305 69.75 L 305 305 L 38 305 Z M 38 69.75 " clip-rule="nonzero"/></clipPath><clipPath id="cf98329a6b"><path d="M 38 144 L 337 144 L 337 305.25 L 38 305.25 Z M 38 144 " clip-rule="nonzero"/></clipPath><clipPath id="ea6f03241f"><path d="M 127.339844 167.007812 L 247.335938 167.007812 L 247.335938 287.628906 L 127.339844 287.628906 Z M 127.339844 167.007812 " clip-rule="nonzero"/></clipPath></defs><g clip-path="url(#070d8ee7af)"><path fill="#276fbf" d="M 304.984375 123.03125 C 304.984375 111.25 295.453125 101.71875 283.671875 101.71875 C 246.019531 101.71875 169.285156 101.71875 143.308594 101.71875 C 137.671875 101.71875 132.238281 99.46875 128.242188 95.472656 C 122.621094 89.855469 114.378906 81.613281 108.761719 75.992188 C 104.765625 71.996094 99.332031 69.75 93.691406 69.75 C 85.015625 69.75 71.402344 69.75 59.894531 69.75 C 54.230469 69.75 48.820312 71.996094 44.824219 75.992188 C 40.828125 79.988281 38.582031 85.402344 38.582031 91.0625 C 38.582031 135.644531 38.582031 238.292969 38.582031 282.871094 C 38.582031 288.535156 40.828125 293.945312 44.824219 297.941406 C 48.820312 301.9375 54.230469 304.183594 59.894531 304.183594 C 109.800781 304.183594 233.761719 304.183594 283.671875 304.183594 C 289.332031 304.183594 294.742188 301.9375 298.738281 297.941406 C 302.734375 293.945312 304.984375 288.535156 304.984375 282.871094 C 304.984375 243.972656 304.984375 161.929688 304.984375 123.03125 " fill-opacity="1" fill-rule="evenodd"/></g><path fill="#ffffff" d="M 294.328125 133.6875 C 294.328125 127.796875 289.5625 123.03125 283.671875 123.03125 L 65.222656 123.03125 C 59.332031 123.03125 54.566406 127.796875 54.566406 133.6875 L 54.566406 277.542969 C 54.566406 283.433594 59.332031 288.199219 65.222656 288.199219 L 283.671875 288.199219 C 289.5625 288.199219 294.328125 283.433594 294.328125 277.542969 L 294.328125 133.6875 " fill-opacity="1" fill-rule="evenodd"/><g clip-path="url(#cf98329a6b)"><path fill="#7da8d8" d="M 336.578125 168.152344 C 337.761719 162.261719 336.078125 156.207031 331.976562 151.605469 C 327.878906 147.007812 321.800781 144.34375 315.390625 144.34375 C 260.050781 144.34375 131.65625 144.34375 84.390625 144.34375 C 74.023438 144.34375 65.117188 151.230469 63.203125 160.742188 C 57.457031 189.296875 45.59375 248.28125 38.957031 281.351562 C 37.769531 287.222656 39.453125 293.277344 43.554688 297.878906 C 47.632812 302.476562 53.734375 305.140625 60.144531 305.140625 C 115.484375 305.140625 243.878906 305.140625 291.144531 305.140625 C 301.507812 305.140625 310.414062 298.253906 312.332031 288.742188 C 318.074219 260.1875 329.9375 201.203125 336.578125 168.152344 " fill-opacity="1" fill-rule="evenodd"/></g><g clip-path="url(#ea6f03241f)"><path fill="#259151" d="M 152.695312 186.9375 L 180.527344 186.9375 C 184.503906 186.9375 187.820312 189.761719 188.589844 193.511719 L 188.757812 195.171875 L 188.589844 196.832031 C 187.820312 200.582031 184.503906 203.40625 180.527344 203.40625 L 150.460938 203.40625 C 146.78125 203.40625 143.800781 206.386719 143.800781 210.066406 L 143.800781 264.5 C 143.800781 268.175781 146.78125 271.160156 150.460938 271.160156 L 204.871094 271.160156 C 208.546875 271.160156 211.527344 268.175781 211.527344 264.5 L 211.527344 234.046875 C 211.527344 230.066406 214.347656 226.746094 218.101562 225.980469 L 219.757812 225.8125 L 221.417969 225.980469 C 225.167969 226.746094 227.988281 230.066406 227.988281 234.046875 L 227.988281 270.847656 C 227.988281 280.113281 220.480469 287.628906 211.214844 287.628906 L 144.113281 287.628906 C 134.851562 287.628906 127.339844 280.113281 127.339844 270.847656 L 127.339844 203.71875 C 127.339844 194.449219 134.851562 186.9375 144.113281 186.9375 Z M 239.425781 167.007812 L 241.085938 167.175781 C 242.691406 167.503906 244.128906 168.300781 245.246094 169.417969 C 246.738281 170.910156 247.65625 172.96875 247.65625 175.242188 L 247.65625 214.328125 C 247.65625 218.875 243.972656 222.5625 239.425781 222.5625 C 234.882812 222.5625 231.195312 218.875 231.195312 214.328125 L 231.195312 194.492188 L 179.597656 247.90625 C 176.4375 251.179688 171.226562 251.265625 167.957031 248.105469 C 164.6875 244.945312 164.597656 239.734375 167.757812 236.464844 L 218.945312 183.476562 L 200.359375 183.476562 C 196.378906 183.476562 193.0625 180.652344 192.292969 176.902344 L 192.125 175.242188 L 192.292969 173.582031 C 193.0625 169.832031 196.378906 167.007812 200.359375 167.007812 Z M 239.425781 167.007812 " fill-opacity="1" fill-rule="evenodd"/></g></svg>