<svg xmlns="http://www.w3.org/2000/svg" xmlns:xlink="http://www.w3.org/1999/xlink" width="500" zoomAndPan="magnify" viewBox="0 0 375 374.999991" height="500" preserveAspectRatio="xMidYMid meet" version="1.0"><defs><clipPath id="81e16977f2"><path d="M 38 69.75 L 305 69.75 L 305 305 L 38 305 Z M 38 69.75 " clip-rule="nonzero"/></clipPath><clipPath id="ab16fe3683"><path d="M 38 144 L 337 144 L 337 305.25 L 38 305.25 Z M 38 144 " clip-rule="nonzero"/></clipPath></defs><g clip-path="url(#81e16977f2)"><path fill="#276fbf" d="M 304.984375 123.03125 C 304.984375 111.25 295.453125 101.71875 283.671875 101.71875 C 246.019531 101.71875 169.285156 101.71875 143.308594 101.71875 C 137.671875 101.71875 132.238281 99.46875 128.242188 95.472656 C 122.621094 89.855469 114.378906 81.613281 108.761719 75.992188 C 104.765625 71.996094 99.332031 69.75 93.691406 69.75 C 85.015625 69.75 71.402344 69.75 59.894531 69.75 C 54.230469 69.75 48.820312 71.996094 44.824219 75.992188 C 40.828125 79.988281 38.582031 85.402344 38.582031 91.0625 C 38.582031 135.644531 38.582031 238.292969 38.582031 282.871094 C 38.582031 288.535156 40.828125 293.945312 44.824219 297.941406 C 48.820312 301.9375 54.230469 304.183594 59.894531 304.183594 C 109.800781 304.183594 233.761719 304.183594 283.671875 304.183594 C 289.332031 304.183594 294.742188 301.9375 298.738281 297.941406 C 302.734375 293.945312 304.984375 288.535156 304.984375 282.871094 C 304.984375 243.972656 304.984375 161.929688 304.984375 123.03125 " fill-opacity="1" fill-rule="evenodd"/></g><path fill="#ffffff" d="M 294.328125 133.6875 C 294.328125 127.796875 289.5625 123.03125 283.671875 123.03125 L 65.222656 123.03125 C 59.332031 123.03125 54.566406 127.796875 54.566406 133.6875 L 54.566406 277.542969 C 54.566406 283.433594 59.332031 288.199219 65.222656 288.199219 L 283.671875 288.199219 C 289.5625 288.199219 294.328125 283.433594 294.328125 277.542969 L 294.328125 133.6875 " fill-opacity="1" fill-rule="evenodd"/><g clip-path="url(#ab16fe3683)"><path fill="#7da8d8" d="M 336.578125 168.152344 C 337.761719 162.261719 336.078125 156.207031 331.976562 151.605469 C 327.878906 147.007812 321.800781 144.34375 315.390625 144.34375 C 260.050781 144.34375 131.65625 144.34375 84.390625 144.34375 C 74.023438 144.34375 65.117188 151.230469 63.203125 160.742188 C 57.457031 189.296875 45.59375 248.28125 38.957031 281.351562 C 37.769531 287.222656 39.453125 293.277344 43.554688 297.878906 C 47.632812 302.476562 53.734375 305.140625 60.144531 305.140625 C 115.484375 305.140625 243.878906 305.140625 291.144531 305.140625 C 301.507812 305.140625 310.414062 298.253906 312.332031 288.742188 C 318.074219 260.1875 329.9375 201.203125 336.578125 168.152344 " fill-opacity="1" fill-rule="evenodd"/></g></svg>