<svg xmlns="http://www.w3.org/2000/svg" xmlns:xlink="http://www.w3.org/1999/xlink" width="500" zoomAndPan="magnify" viewBox="0 0 375 374.999991" height="500" preserveAspectRatio="xMidYMid meet" version="1.0"><defs><clipPath id="371b4c50f0"><path d="M 47.765625 49.652344 L 272.765625 49.652344 L 272.765625 274.652344 L 47.765625 274.652344 Z M 47.765625 49.652344 " clip-rule="nonzero"/></clipPath><clipPath id="4741ad4946"><path d="M 160.265625 49.652344 C 98.132812 49.652344 47.765625 100.019531 47.765625 162.152344 C 47.765625 224.285156 98.132812 274.652344 160.265625 274.652344 C 222.398438 274.652344 272.765625 224.285156 272.765625 162.152344 C 272.765625 100.019531 222.398438 49.652344 160.265625 49.652344 Z M 160.265625 49.652344 " clip-rule="nonzero"/></clipPath><clipPath id="a9d7dbc2a5"><path d="M 37.5 37.5 L 336 37.5 L 336 336 L 37.5 336 Z M 37.5 37.5 " clip-rule="nonzero"/></clipPath></defs><g clip-path="url(#371b4c50f0)"><g clip-path="url(#4741ad4946)"><path fill="#ffffff" d="M 47.765625 49.652344 L 272.765625 49.652344 L 272.765625 274.652344 L 47.765625 274.652344 Z M 47.765625 49.652344 " fill-opacity="1" fill-rule="nonzero"/></g></g><g clip-path="url(#a9d7dbc2a5)"><path fill="#000000" d="M 230.324219 256.875 L 303.804688 330.328125 C 311.078125 337.601562 322.894531 337.597656 330.167969 330.324219 C 337.441406 323.046875 337.441406 311.230469 330.164062 303.957031 L 256.734375 230.554688 C 271.507812 210.460938 280.238281 185.648438 280.238281 158.8125 C 280.238281 91.859375 225.878906 37.5 158.925781 37.5 C 91.96875 37.5 37.613281 91.859375 37.613281 158.8125 C 37.613281 225.769531 91.96875 280.125 158.925781 280.125 C 185.605469 280.125 210.289062 271.496094 230.324219 256.875 Z M 158.925781 74.785156 C 205.300781 74.785156 242.953125 112.4375 242.953125 158.8125 C 242.953125 205.1875 205.300781 242.84375 158.925781 242.84375 C 112.550781 242.84375 74.898438 205.1875 74.898438 158.8125 C 74.898438 112.4375 112.550781 74.785156 158.925781 74.785156 Z M 158.925781 74.785156 " fill-opacity="1" fill-rule="evenodd"/></g></svg>