<svg xmlns="http://www.w3.org/2000/svg" xmlns:xlink="http://www.w3.org/1999/xlink" width="500" zoomAndPan="magnify" viewBox="0 0 375 374.999991" height="500" preserveAspectRatio="xMidYMid meet" version="1.0"><defs><g/><clipPath id="323e5e74f4"><path d="M 117 103 L 243 103 L 243 154 L 117 154 Z M 117 103 " clip-rule="nonzero"/></clipPath><clipPath id="37b20e096d"><path d="M 113.039062 4.503906 L 349.828125 98.226562 L 261.726562 320.808594 L 24.9375 227.085938 Z M 113.039062 4.503906 " clip-rule="nonzero"/></clipPath><clipPath id="90df84efdf"><path d="M 113.039062 4.503906 L 349.828125 98.226562 L 261.726562 320.808594 L 24.9375 227.085938 Z M 113.039062 4.503906 " clip-rule="nonzero"/></clipPath><clipPath id="e89ec0ad96"><path d="M 40 61 L 336 61 L 336 260 L 40 260 Z M 40 61 " clip-rule="nonzero"/></clipPath><clipPath id="efc45cda9a"><path d="M 113.039062 4.503906 L 349.828125 98.226562 L 261.726562 320.808594 L 24.9375 227.085938 Z M 113.039062 4.503906 " clip-rule="nonzero"/></clipPath><clipPath id="7c2cc8e9b2"><path d="M 113.039062 4.503906 L 349.828125 98.226562 L 261.726562 320.808594 L 24.9375 227.085938 Z M 113.039062 4.503906 " clip-rule="nonzero"/></clipPath><clipPath id="0206986e32"><path d="M 123 130 L 141 130 L 141 155 L 123 155 Z M 123 130 " clip-rule="nonzero"/></clipPath><clipPath id="51609a2b0c"><path d="M 113.039062 4.503906 L 349.828125 98.226562 L 261.726562 320.808594 L 24.9375 227.085938 Z M 113.039062 4.503906 " clip-rule="nonzero"/></clipPath><clipPath id="65760eb8c6"><path d="M 113.039062 4.503906 L 349.828125 98.226562 L 261.726562 320.808594 L 24.9375 227.085938 Z M 113.039062 4.503906 " clip-rule="nonzero"/></clipPath><clipPath id="ae01399491"><path d="M 140 122 L 157 122 L 157 148 L 140 148 Z M 140 122 " clip-rule="nonzero"/></clipPath><clipPath id="1a023e517f"><path d="M 113.039062 4.503906 L 349.828125 98.226562 L 261.726562 320.808594 L 24.9375 227.085938 Z M 113.039062 4.503906 " clip-rule="nonzero"/></clipPath><clipPath id="45f09a8047"><path d="M 113.039062 4.503906 L 349.828125 98.226562 L 261.726562 320.808594 L 24.9375 227.085938 Z M 113.039062 4.503906 " clip-rule="nonzero"/></clipPath><clipPath id="27bf50af54"><path d="M 158 114 L 175 114 L 175 140 L 158 140 Z M 158 114 " clip-rule="nonzero"/></clipPath><clipPath id="51e235d989"><path d="M 113.039062 4.503906 L 349.828125 98.226562 L 261.726562 320.808594 L 24.9375 227.085938 Z M 113.039062 4.503906 " clip-rule="nonzero"/></clipPath><clipPath id="eaf8c24dbf"><path d="M 113.039062 4.503906 L 349.828125 98.226562 L 261.726562 320.808594 L 24.9375 227.085938 Z M 113.039062 4.503906 " clip-rule="nonzero"/></clipPath><clipPath id="bcb9e86bec"><path d="M 177 107 L 195 107 L 195 134 L 177 134 Z M 177 107 " clip-rule="nonzero"/></clipPath><clipPath id="af056be776"><path d="M 113.039062 4.503906 L 349.828125 98.226562 L 261.726562 320.808594 L 24.9375 227.085938 Z M 113.039062 4.503906 " clip-rule="nonzero"/></clipPath><clipPath id="fefca1ef3d"><path d="M 113.039062 4.503906 L 349.828125 98.226562 L 261.726562 320.808594 L 24.9375 227.085938 Z M 113.039062 4.503906 " clip-rule="nonzero"/></clipPath><clipPath id="3e1fd7d723"><path d="M 197 102 L 214 102 L 214 128 L 197 128 Z M 197 102 " clip-rule="nonzero"/></clipPath><clipPath id="95d2b62704"><path d="M 113.039062 4.503906 L 349.828125 98.226562 L 261.726562 320.808594 L 24.9375 227.085938 Z M 113.039062 4.503906 " clip-rule="nonzero"/></clipPath><clipPath id="357b6d4f57"><path d="M 113.039062 4.503906 L 349.828125 98.226562 L 261.726562 320.808594 L 24.9375 227.085938 Z M 113.039062 4.503906 " clip-rule="nonzero"/></clipPath><clipPath id="135819ad24"><path d="M 216 98 L 232 98 L 232 124 L 216 124 Z M 216 98 " clip-rule="nonzero"/></clipPath><clipPath id="6ad2bde37f"><path d="M 113.039062 4.503906 L 349.828125 98.226562 L 261.726562 320.808594 L 24.9375 227.085938 Z M 113.039062 4.503906 " clip-rule="nonzero"/></clipPath><clipPath id="8875397bc3"><path d="M 113.039062 4.503906 L 349.828125 98.226562 L 261.726562 320.808594 L 24.9375 227.085938 Z M 113.039062 4.503906 " clip-rule="nonzero"/></clipPath><clipPath id="aeb51a79e7"><path d="M 230 248 L 240 248 L 240 256.890625 L 230 256.890625 Z M 230 248 " clip-rule="nonzero"/></clipPath><clipPath id="9da056b963"><path d="M 187.5 171 L 197 171 L 197 181 L 187.5 181 Z M 187.5 171 " clip-rule="nonzero"/></clipPath><clipPath id="a323af9c94"><path d="M 214 133.382812 L 220 133.382812 L 220 138 L 214 138 Z M 214 133.382812 " clip-rule="nonzero"/></clipPath><clipPath id="7e581a3f7f"><path d="M 296 181 L 300.824219 181 L 300.824219 187 L 296 187 Z M 296 181 " clip-rule="nonzero"/></clipPath><clipPath id="86fd4c36c3"><path d="M 296 242 L 300.824219 242 L 300.824219 248 L 296 248 Z M 296 242 " clip-rule="nonzero"/></clipPath></defs><g clip-path="url(#323e5e74f4)"><g clip-path="url(#37b20e096d)"><g clip-path="url(#90df84efdf)"><path fill="#276fbf" d="M 242.28125 108.945312 C 242.535156 111.890625 240.402344 114.449219 237.480469 114.757812 C 219.492188 116.648438 200.804688 120.414062 185.433594 125.277344 C 164.511719 131.863281 144.542969 141.15625 125.960938 152.933594 C 123.488281 154.5 120.226562 153.8125 118.570312 151.347656 C 116.894531 148.832031 117.628906 145.457031 120.167969 143.832031 C 139.550781 131.550781 160.367188 121.863281 182.183594 114.980469 C 203.015625 108.402344 223.515625 105.394531 236.382812 104.023438 C 239.34375 103.730469 242.039062 105.960938 242.28125 108.945312 Z M 242.28125 108.945312 " fill-opacity="1" fill-rule="nonzero"/></g></g></g><g clip-path="url(#e89ec0ad96)"><g clip-path="url(#efc45cda9a)"><g clip-path="url(#7c2cc8e9b2)"><path fill="#276fbf" d="M 333.332031 110.722656 C 331.824219 107.238281 329.847656 104.171875 327.664062 101.410156 C 325.480469 98.652344 323.089844 96.195312 320.589844 93.914062 C 318.089844 91.628906 315.449219 89.59375 312.761719 87.667969 C 310.078125 85.742188 307.316406 84.003906 304.511719 82.378906 C 293.246094 75.890625 281.1875 71.292969 268.882812 67.972656 C 256.542969 64.640625 243.921875 62.660156 231.15625 61.917969 C 218.390625 61.175781 205.570312 61.660156 192.832031 63.472656 C 186.488281 64.363281 180.136719 65.601562 173.898438 67.097656 C 167.644531 68.628906 161.476562 70.496094 155.367188 72.648438 C 149.296875 74.8125 143.34375 77.328125 137.503906 80.101562 C 131.703125 82.890625 126.039062 85.992188 120.5 89.316406 C 114.996094 92.65625 109.679688 96.28125 104.53125 100.148438 C 101.949219 102.101562 99.441406 104.082031 96.992188 106.128906 C 94.507812 108.164062 92.066406 110.300781 89.738281 112.480469 C 80.257812 121.183594 71.59375 130.769531 64.058594 141.320312 C 62.148438 143.96875 60.347656 146.660156 58.585938 149.367188 C 56.847656 152.128906 55.222656 154.933594 53.601562 157.824219 C 50.429688 163.550781 47.683594 169.617188 45.378906 175.988281 C 44.238281 179.199219 43.242188 182.472656 42.460938 185.867188 C 41.675781 189.261719 41.011719 192.792969 40.757812 196.484375 C 40.695312 197.40625 40.628906 198.332031 40.589844 199.304688 L 40.550781 200.710938 L 40.570312 202.183594 C 40.582031 203.136719 40.652344 204.15625 40.699219 205.125 C 40.722656 205.609375 40.785156 206.105469 40.84375 206.605469 C 40.90625 207.101562 40.96875 207.601562 41.03125 208.097656 C 41.3125 210.109375 41.820312 212.203125 42.488281 214.324219 C 43.179688 216.492188 44.066406 218.394531 45.015625 220.238281 C 46.019531 222.054688 47.070312 223.765625 48.265625 225.316406 C 49.410156 226.886719 50.648438 228.328125 51.921875 229.691406 C 52.554688 230.375 53.203125 231.019531 53.855469 231.664062 C 54.519531 232.273438 55.167969 232.917969 55.847656 233.488281 C 57.175781 234.703125 58.566406 235.769531 59.953125 236.835938 C 65.511719 240.976562 71.335938 244.230469 77.304688 246.894531 C 80.265625 248.238281 83.28125 249.433594 86.308594 250.5 C 89.332031 251.570312 92.363281 252.511719 95.425781 253.378906 C 101.527344 255.058594 107.699219 256.339844 113.917969 257.292969 C 120.113281 258.191406 126.296875 258.785156 132.503906 259.003906 C 138.695312 259.253906 144.871094 259.113281 151.023438 258.703125 C 163.292969 257.871094 175.363281 255.796875 186.988281 252.339844 C 163.105469 255.730469 119.707031 254.972656 92.960938 240.117188 C 107.976562 244.207031 124.035156 244.359375 139.074219 240.441406 C 125.984375 240.089844 112.925781 237.804688 100.480469 233.742188 C 93.351562 231.394531 86.125 228.964844 79.5625 225.292969 C 74.023438 222.191406 66.890625 217.128906 65.074219 210.722656 C 63.101562 203.734375 66.847656 199.269531 71.304688 194.4375 C 76.136719 189.199219 81.199219 184.132812 86.445312 179.269531 C 96.835938 169.679688 108.894531 160.230469 120.679688 152.441406 L 118.503906 148.90625 C 102.140625 159.753906 85.714844 173.164062 72.039062 187.359375 C 70.339844 189.144531 67.4375 187.21875 68.375 184.960938 C 68.390625 184.925781 68.402344 184.886719 68.417969 184.851562 C 70.460938 180.015625 73.019531 175.292969 75.855469 170.640625 C 78.722656 166 81.878906 161.519531 85.292969 157.136719 C 92.09375 148.449219 99.824219 140.347656 108.214844 132.980469 C 116.589844 125.652344 125.5625 118.988281 135.082031 113.230469 C 139.832031 110.371094 144.703125 107.644531 149.710938 105.230469 C 154.679688 102.800781 159.792969 100.558594 164.964844 98.597656 C 170.136719 96.636719 175.433594 94.898438 180.757812 93.429688 C 186.132812 91.9375 191.566406 90.726562 197.054688 89.707031 C 199.800781 89.199219 202.550781 88.78125 205.328125 88.414062 C 208.101562 88.046875 210.859375 87.71875 213.679688 87.453125 C 216.484375 87.226562 219.289062 87 222.050781 86.886719 C 223.460938 86.800781 224.847656 86.789062 226.246094 86.738281 C 227.628906 86.726562 229.066406 86.691406 230.449219 86.679688 C 233.253906 86.667969 236.082031 86.710938 238.882812 86.828125 C 241.679688 86.941406 244.5 87.113281 247.292969 87.355469 C 252.890625 87.804688 258.496094 88.554688 264.027344 89.496094 C 269.582031 90.488281 275.050781 91.703125 280.417969 93.269531 C 285.804688 94.796875 291.074219 96.625 296.140625 98.847656 C 298.683594 99.9375 301.144531 101.128906 303.519531 102.414062 C 303.558594 102.429688 303.59375 102.441406 303.632812 102.457031 C 307.03125 104.320312 305.25 109.476562 301.421875 108.910156 C 280.867188 105.859375 259.796875 105.191406 239.28125 106.9375 L 239.652344 111.222656 C 258.527344 109.601562 277.546875 110.105469 296.289062 112.523438 C 299.5625 112.957031 302.863281 113.445312 306.09375 113.992188 C 308.996094 114.492188 311.585938 114.699219 313.871094 116.765625 C 316.722656 119.363281 317.429688 123.347656 317.875 127.015625 C 318.34375 130.949219 318.335938 134.996094 317.738281 138.898438 C 320.898438 133.640625 322.101562 127.222656 321.144531 121.152344 C 320.945312 119.910156 320.65625 118.679688 320.28125 117.453125 C 323.773438 122.238281 324.089844 127.320312 324.089844 127.320312 C 324.167969 128.429688 324.230469 129.574219 324.207031 130.726562 C 324.152344 136.09375 323.167969 141.738281 321.691406 147.316406 C 320.179688 152.878906 318.160156 158.417969 315.753906 163.84375 C 313.382812 169.28125 310.589844 174.597656 307.632812 179.894531 C 311.882812 175.582031 315.792969 170.925781 319.394531 165.972656 C 322.953125 161.003906 326.253906 155.714844 328.964844 150.066406 C 330.339844 147.246094 331.578125 144.332031 332.609375 141.292969 C 333.675781 138.269531 334.5 135.101562 335.113281 131.8125 C 335.382812 130.152344 335.613281 128.476562 335.734375 126.757812 C 335.855469 125.039062 335.863281 123.273438 335.78125 121.519531 C 335.679688 119.710938 335.433594 117.933594 335.039062 116.097656 C 334.652344 114.347656 334.058594 112.476562 333.332031 110.722656 Z M 333.332031 110.722656 " fill-opacity="1" fill-rule="nonzero"/></g></g></g><g clip-path="url(#0206986e32)"><g clip-path="url(#51609a2b0c)"><g clip-path="url(#65760eb8c6)"><path fill="#276fbf" d="M 136.753906 154.40625 C 134.660156 155.128906 132.425781 154.890625 131.132812 153.691406 C 125.878906 148.679688 123.175781 142.652344 123.175781 135.800781 C 123.167969 133.640625 125.496094 131.460938 128.386719 131.011719 C 131.296875 130.523438 133.628906 131.921875 133.636719 134.082031 C 133.671875 139.4375 135.683594 143.941406 139.804688 147.898438 C 141.433594 149.449219 140.773438 151.988281 138.375 153.582031 C 137.882812 153.949219 137.347656 154.210938 136.753906 154.40625 Z M 136.753906 154.40625 " fill-opacity="1" fill-rule="nonzero"/></g></g></g><g clip-path="url(#ae01399491)"><g clip-path="url(#1a023e517f)"><g clip-path="url(#45f09a8047)"><path fill="#276fbf" d="M 152.464844 147.050781 C 150.019531 147.890625 147.460938 147.394531 146.417969 145.777344 C 142.820312 140.171875 140.730469 133.914062 140.257812 127.261719 C 140.109375 125.136719 142.324219 122.910156 145.1875 122.320312 C 148.089844 121.742188 150.554688 123.019531 150.707031 125.148438 C 151.136719 130.921875 152.894531 136.273438 156.03125 141.089844 C 157.214844 142.894531 155.996094 145.429688 153.335938 146.703125 C 153.0625 146.855469 152.765625 146.953125 152.464844 147.050781 Z M 152.464844 147.050781 " fill-opacity="1" fill-rule="nonzero"/></g></g></g><g clip-path="url(#27bf50af54)"><g clip-path="url(#51e235d989)"><g clip-path="url(#eaf8c24dbf)"><path fill="#276fbf" d="M 170.632812 139.585938 C 167.941406 140.503906 165.164062 139.792969 164.355469 137.921875 C 161.847656 132.058594 159.824219 125.957031 158.367188 119.734375 C 157.898438 117.652344 159.816406 115.308594 162.675781 114.5 C 165.539062 113.695312 168.25 114.683594 168.71875 116.765625 C 170.097656 122.652344 172.023438 128.457031 174.394531 134.007812 C 175.210938 135.96875 173.644531 138.40625 170.894531 139.476562 C 170.789062 139.519531 170.6875 139.566406 170.632812 139.585938 Z M 170.632812 139.585938 " fill-opacity="1" fill-rule="nonzero"/></g></g></g><g clip-path="url(#bcb9e86bec)"><g clip-path="url(#af056be776)"><g clip-path="url(#fefca1ef3d)"><path fill="#276fbf" d="M 190.550781 132.601562 C 190.460938 132.609375 190.394531 132.667969 190.304688 132.675781 C 187.453125 133.574219 184.726562 132.625 184.152344 130.585938 C 182.546875 124.734375 180.425781 118.984375 177.863281 113.488281 C 176.992188 111.546875 178.484375 109.078125 181.25 107.976562 C 184.015625 106.871094 186.949219 107.515625 187.855469 109.46875 C 190.519531 115.265625 192.75 121.277344 194.417969 127.410156 C 194.980469 129.355469 193.257812 131.648438 190.550781 132.601562 Z M 190.550781 132.601562 " fill-opacity="1" fill-rule="nonzero"/></g></g></g><g clip-path="url(#3e1fd7d723)"><g clip-path="url(#95d2b62704)"><g clip-path="url(#357b6d4f57)"><path fill="#276fbf" d="M 209.871094 127.019531 C 209.574219 127.117188 209.292969 127.175781 208.992188 127.273438 C 206.117188 127.902344 203.582031 126.683594 203.34375 124.5625 C 202.757812 118.859375 200.816406 113.523438 197.578125 108.75 C 196.382812 106.984375 197.527344 104.417969 200.164062 103.09375 C 202.800781 101.765625 205.890625 102.125 207.125 103.90625 C 210.878906 109.445312 213.125 115.636719 213.828125 122.25 C 214.011719 124.175781 212.316406 126.175781 209.871094 127.019531 Z M 209.871094 127.019531 " fill-opacity="1" fill-rule="nonzero"/></g></g></g><g clip-path="url(#135819ad24)"><g clip-path="url(#6ad2bde37f)"><g clip-path="url(#8875397bc3)"><path fill="#276fbf" d="M 227.144531 122.90625 C 226.546875 123.101562 225.96875 123.261719 225.304688 123.300781 C 222.414062 123.535156 220.332031 121.933594 220.640625 119.730469 C 221.410156 114.089844 220.164062 109.285156 216.882812 105.054688 C 215.53125 103.355469 216.535156 100.824219 219.085938 99.378906 C 221.640625 97.933594 224.8125 98.195312 226.167969 99.894531 C 230.414062 105.28125 232.066406 111.667969 231.070312 118.859375 C 230.863281 120.585938 229.238281 122.1875 227.144531 122.90625 Z M 227.144531 122.90625 " fill-opacity="1" fill-rule="nonzero"/></g></g></g><path fill="#60636a" d="M 229.855469 154.707031 L 195.378906 207.84375 L 202.597656 233.171875 L 240.792969 173.085938 Z M 229.855469 154.707031 " fill-opacity="1" fill-rule="nonzero"/><path fill="#60636a" d="M 217.332031 215.386719 L 204.722656 235.21875 L 279.746094 235.21875 L 291.5 215.386719 Z M 217.332031 215.386719 " fill-opacity="1" fill-rule="nonzero"/><g clip-path="url(#aeb51a79e7)"><path fill="#60636a" d="M 235.242188 248.449219 C 232.851562 248.449219 230.902344 250.398438 230.902344 252.789062 C 230.902344 255.183594 232.851562 257.128906 235.242188 257.128906 C 237.636719 257.128906 239.582031 255.183594 239.582031 252.789062 C 239.582031 250.398438 237.636719 248.449219 235.242188 248.449219 Z M 235.242188 248.449219 " fill-opacity="1" fill-rule="nonzero"/></g><path fill="#60636a" d="M 291.453125 212.492188 L 255.125 153.410156 L 232.453125 153.410156 L 267.601562 212.492188 Z M 291.453125 212.492188 " fill-opacity="1" fill-rule="nonzero"/><g clip-path="url(#9da056b963)"><path fill="#60636a" d="M 191.839844 171.773438 C 189.445312 171.773438 187.5 173.71875 187.5 176.113281 C 187.5 178.503906 189.445312 180.453125 191.839844 180.453125 C 194.234375 180.453125 196.179688 178.503906 196.179688 176.113281 C 196.179688 173.71875 194.234375 171.773438 191.839844 171.773438 Z M 191.839844 171.773438 " fill-opacity="1" fill-rule="nonzero"/></g><path fill="#60636a" d="M 298.898438 155.855469 C 298.898438 152.667969 296.304688 150.070312 293.113281 150.070312 C 289.921875 150.070312 287.328125 152.667969 287.328125 155.855469 C 287.328125 159.046875 289.921875 161.644531 293.113281 161.644531 C 296.304688 161.644531 298.898438 159.046875 298.898438 155.855469 Z M 298.898438 155.855469 " fill-opacity="1" fill-rule="nonzero"/><path fill="#60636a" d="M 273.582031 144.285156 C 274.78125 144.285156 275.753906 143.3125 275.753906 142.113281 C 275.753906 140.914062 274.78125 139.941406 273.582031 139.941406 C 272.382812 139.941406 271.410156 140.914062 271.410156 142.113281 C 271.410156 143.3125 272.382812 144.285156 273.582031 144.285156 Z M 273.582031 144.285156 " fill-opacity="1" fill-rule="nonzero"/><g clip-path="url(#a323af9c94)"><path fill="#60636a" d="M 217.160156 137.773438 C 218.355469 137.773438 219.328125 136.800781 219.328125 135.601562 C 219.328125 134.402344 218.355469 133.433594 217.160156 133.433594 C 215.960938 133.433594 214.988281 134.402344 214.988281 135.601562 C 214.988281 136.800781 215.960938 137.773438 217.160156 137.773438 Z M 217.160156 137.773438 " fill-opacity="1" fill-rule="nonzero"/></g><path fill="#60636a" d="M 192.5625 152.964844 C 193.761719 152.964844 194.734375 151.992188 194.734375 150.792969 C 194.734375 149.59375 193.761719 148.625 192.5625 148.625 C 191.363281 148.625 190.394531 149.59375 190.394531 150.792969 C 190.394531 151.992188 191.363281 152.964844 192.5625 152.964844 Z M 192.5625 152.964844 " fill-opacity="1" fill-rule="nonzero"/><g clip-path="url(#7e581a3f7f)"><path fill="#60636a" d="M 298.175781 186.238281 C 299.375 186.238281 300.347656 185.269531 300.347656 184.070312 C 300.347656 182.871094 299.375 181.898438 298.175781 181.898438 C 296.976562 181.898438 296.007812 182.871094 296.007812 184.070312 C 296.007812 185.269531 296.976562 186.238281 298.175781 186.238281 Z M 298.175781 186.238281 " fill-opacity="1" fill-rule="nonzero"/></g><g clip-path="url(#86fd4c36c3)"><path fill="#60636a" d="M 298.175781 247.003906 C 299.375 247.003906 300.347656 246.03125 300.347656 244.832031 C 300.347656 243.632812 299.375 242.664062 298.175781 242.664062 C 296.976562 242.664062 296.007812 243.632812 296.007812 244.832031 C 296.007812 246.03125 296.976562 247.003906 298.175781 247.003906 Z M 298.175781 247.003906 " fill-opacity="1" fill-rule="nonzero"/></g><path fill="#60636a" d="M 191.117188 249.898438 C 192.316406 249.898438 193.285156 248.925781 193.285156 247.726562 C 193.285156 246.527344 192.316406 245.554688 191.117188 245.554688 C 189.917969 245.554688 188.945312 246.527344 188.945312 247.726562 C 188.945312 248.925781 189.917969 249.898438 191.117188 249.898438 Z M 191.117188 249.898438 " fill-opacity="1" fill-rule="nonzero"/><g fill="#000000" fill-opacity="1"><g transform="translate(73.673102, 303.922967)"><g><path d="M 23.53125 -21.65625 L 15.328125 -21.65625 L 15.328125 0 L 8.40625 0 L 8.40625 -21.65625 L 0.265625 -21.65625 L 0.265625 -27.265625 L 23.53125 -27.265625 Z M 23.53125 -21.65625 "/></g></g></g><g fill="#000000" fill-opacity="1"><g transform="translate(101.31557, 303.922967)"><g><path d="M 2.71875 -27.21875 L 14.421875 -27.21875 C 18.703125 -27.21875 22.179688 -25.957031 24.859375 -23.4375 C 27.546875 -20.925781 28.890625 -17.648438 28.890625 -13.609375 C 28.890625 -9.585938 27.53125 -6.3125 24.8125 -3.78125 C 22.09375 -1.257812 18.539062 0 14.15625 0 L 2.71875 0 Z M 9.640625 -21.703125 L 9.640625 -5.515625 L 14.578125 -5.515625 C 16.703125 -5.515625 18.445312 -6.257812 19.8125 -7.75 C 21.175781 -9.25 21.859375 -11.191406 21.859375 -13.578125 C 21.859375 -15.960938 21.144531 -17.910156 19.71875 -19.421875 C 18.289062 -20.941406 16.472656 -21.703125 14.265625 -21.703125 Z M 9.640625 -21.703125 "/></g></g></g><g fill="#000000" fill-opacity="1"><g transform="translate(135.030732, 303.922967)"><g/></g></g><g fill="#000000" fill-opacity="1"><g transform="translate(147.939341, 303.922967)"><g/></g></g><g fill="#000000" fill-opacity="1"><g transform="translate(160.855052, 303.922967)"><g><path d="M 2.71875 -27.21875 L 14.421875 -27.21875 C 18.703125 -27.21875 22.179688 -25.957031 24.859375 -23.4375 C 27.546875 -20.925781 28.890625 -17.648438 28.890625 -13.609375 C 28.890625 -9.585938 27.53125 -6.3125 24.8125 -3.78125 C 22.09375 -1.257812 18.539062 0 14.15625 0 L 2.71875 0 Z M 9.640625 -21.703125 L 9.640625 -5.515625 L 14.578125 -5.515625 C 16.703125 -5.515625 18.445312 -6.257812 19.8125 -7.75 C 21.175781 -9.25 21.859375 -11.191406 21.859375 -13.578125 C 21.859375 -15.960938 21.144531 -17.910156 19.71875 -19.421875 C 18.289062 -20.941406 16.472656 -21.703125 14.265625 -21.703125 Z M 9.640625 -21.703125 "/></g></g></g><g fill="#000000" fill-opacity="1"><g transform="translate(194.562121, 303.922967)"><g><path d="M 19.140625 0 L 15.09375 -7.65625 L 9.640625 -7.65625 L 9.640625 0 L 2.71875 0 L 2.71875 -27.21875 L 14.890625 -27.21875 C 18.492188 -27.21875 21.28125 -26.394531 23.25 -24.75 C 25.226562 -23.101562 26.21875 -20.765625 26.21875 -17.734375 C 26.21875 -13.535156 24.566406 -10.617188 21.265625 -8.984375 L 26.984375 0 Z M 9.640625 -13.109375 L 14.890625 -13.109375 C 16.398438 -13.109375 17.566406 -13.484375 18.390625 -14.234375 C 19.222656 -14.984375 19.640625 -16.070312 19.640625 -17.5 C 19.640625 -18.894531 19.222656 -19.957031 18.390625 -20.6875 C 17.566406 -21.414062 16.398438 -21.78125 14.890625 -21.78125 L 9.640625 -21.78125 Z M 9.640625 -13.109375 "/></g></g></g><g fill="#000000" fill-opacity="1"><g transform="translate(226.597543, 303.922967)"><g><path d="M 9.640625 0 L 2.71875 0 L 2.71875 -27.21875 L 9.640625 -27.21875 Z M 9.640625 0 "/></g></g></g><g fill="#000000" fill-opacity="1"><g transform="translate(242.849451, 303.922967)"><g><path d="M 17.6875 0 L 10.546875 0 L -0.03125 -27.21875 L 7.34375 -27.21875 L 14.3125 -7.1875 L 21.265625 -27.21875 L 28.390625 -27.21875 Z M 17.6875 0 "/></g></g></g><g fill="#000000" fill-opacity="1"><g transform="translate(275.079238, 303.922967)"><g><path d="M 24.03125 -21.78125 L 9.640625 -21.78125 L 9.640625 -16.375 L 22.640625 -16.375 L 22.640625 -10.921875 L 9.640625 -10.921875 L 9.640625 -5.4375 L 24.46875 -5.4375 L 24.46875 0 L 2.71875 0 L 2.71875 -27.21875 L 24.03125 -27.21875 Z M 24.03125 -21.78125 "/></g></g></g></svg>
