<svg xmlns="http://www.w3.org/2000/svg" xmlns:xlink="http://www.w3.org/1999/xlink" width="500" zoomAndPan="magnify" viewBox="0 0 375 374.999991" height="500" preserveAspectRatio="xMidYMid meet" version="1.0"><defs><clipPath id="9221d49331"><path d="M 81.917969 69.144531 L 295.921875 69.144531 L 295.921875 279.1875 L 81.917969 279.1875 Z M 81.917969 69.144531 " clip-rule="nonzero"/></clipPath><clipPath id="65d8e4fff7"><path d="M 131.683594 122.105469 L 295.921875 122.105469 L 295.921875 337.5 L 131.683594 337.5 Z M 131.683594 122.105469 " clip-rule="nonzero"/></clipPath><clipPath id="f9c71a371d"><path d="M 76 158 L 256 158 L 256 338 L 76 338 Z M 76 158 " clip-rule="nonzero"/></clipPath><clipPath id="fa8e7c53cd"><path d="M 76.585938 274.5625 L 192.722656 158.425781 L 255.660156 221.363281 L 139.523438 337.5 Z M 76.585938 274.5625 " clip-rule="nonzero"/></clipPath><clipPath id="0cdf673f22"><path d="M 134.875 44.699219 L 242.742188 44.699219 L 242.742188 260.097656 L 134.875 260.097656 Z M 134.875 44.699219 " clip-rule="nonzero"/></clipPath><clipPath id="c86dcb6b72"><path d="M 73.125 37.5 L 301.875 37.5 L 301.875 337.5 L 73.125 337.5 Z M 73.125 37.5 " clip-rule="nonzero"/></clipPath></defs><g clip-path="url(#9221d49331)"><path fill="#ffffff" d="M 81.917969 69.144531 L 296.0625 69.144531 L 296.0625 279.1875 L 81.917969 279.1875 Z M 81.917969 69.144531 " fill-opacity="1" fill-rule="nonzero"/></g><g clip-path="url(#65d8e4fff7)"><path fill="#ffffff" d="M 131.683594 122.105469 L 295.921875 122.105469 L 295.921875 337.667969 L 131.683594 337.667969 Z M 131.683594 122.105469 " fill-opacity="1" fill-rule="nonzero"/></g><g clip-path="url(#f9c71a371d)"><g clip-path="url(#fa8e7c53cd)"><path fill="#ffffff" d="M 76.585938 274.5625 L 192.628906 158.519531 L 255.566406 221.457031 L 139.523438 337.5 Z M 76.585938 274.5625 " fill-opacity="1" fill-rule="nonzero"/></g></g><g clip-path="url(#0cdf673f22)"><path fill="#ffffff" d="M 134.875 44.699219 L 242.742188 44.699219 L 242.742188 260.011719 L 134.875 260.011719 Z M 134.875 44.699219 " fill-opacity="1" fill-rule="nonzero"/></g><path fill="#276fbf" d="M 156.761719 155.53125 C 167.609375 155.53125 176.433594 146.707031 176.433594 135.859375 C 176.433594 125.015625 167.609375 116.1875 156.761719 116.1875 C 145.914062 116.1875 137.089844 125.015625 137.089844 135.859375 C 137.089844 146.707031 145.914062 155.53125 156.761719 155.53125 Z M 156.761719 126.023438 C 162.1875 126.023438 166.597656 130.4375 166.597656 135.859375 C 166.597656 141.285156 162.1875 145.695312 156.761719 145.695312 C 151.335938 145.695312 146.925781 141.285156 146.925781 135.859375 C 146.925781 130.4375 151.335938 126.023438 156.761719 126.023438 Z M 156.761719 126.023438 " fill-opacity="1" fill-rule="nonzero"/><path fill="#276fbf" d="M 156.761719 280.941406 C 167.609375 280.941406 176.433594 272.117188 176.433594 261.269531 C 176.433594 250.421875 167.609375 241.597656 156.761719 241.597656 C 145.914062 241.597656 137.089844 250.421875 137.089844 261.269531 C 137.089844 272.117188 145.914062 280.941406 156.761719 280.941406 Z M 156.761719 251.433594 C 162.1875 251.433594 166.597656 255.847656 166.597656 261.269531 C 166.597656 266.695312 162.1875 271.105469 156.761719 271.105469 C 151.335938 271.105469 146.925781 266.695312 146.925781 261.269531 C 146.925781 255.847656 151.335938 251.433594 156.761719 251.433594 Z M 156.761719 251.433594 " fill-opacity="1" fill-rule="nonzero"/><path fill="#276fbf" d="M 255.121094 241.597656 C 244.277344 241.597656 235.449219 250.421875 235.449219 261.269531 C 235.449219 272.117188 244.277344 280.941406 255.121094 280.941406 C 265.96875 280.941406 274.796875 272.117188 274.796875 261.269531 C 274.796875 250.421875 265.96875 241.597656 255.121094 241.597656 Z M 255.121094 271.105469 C 249.699219 271.105469 245.285156 266.695312 245.285156 261.269531 C 245.285156 255.847656 249.699219 251.433594 255.121094 251.433594 C 260.546875 251.433594 264.960938 255.847656 264.960938 261.269531 C 264.960938 266.695312 260.546875 271.105469 255.121094 271.105469 Z M 255.121094 271.105469 " fill-opacity="1" fill-rule="nonzero"/><path fill="#276fbf" d="M 205.941406 276.023438 C 195.097656 276.023438 186.269531 284.851562 186.269531 295.695312 C 186.269531 306.542969 195.097656 315.367188 205.941406 315.367188 C 216.789062 315.367188 225.613281 306.542969 225.613281 295.695312 C 225.613281 284.851562 216.789062 276.023438 205.941406 276.023438 Z M 205.941406 305.53125 C 200.519531 305.53125 196.105469 301.121094 196.105469 295.695312 C 196.105469 290.273438 200.519531 285.859375 205.941406 285.859375 C 211.367188 285.859375 215.777344 290.273438 215.777344 295.695312 C 215.777344 301.121094 211.367188 305.53125 205.941406 305.53125 Z M 205.941406 305.53125 " fill-opacity="1" fill-rule="nonzero"/><path fill="#276fbf" d="M 127.253906 177.664062 C 129.96875 177.664062 132.171875 175.460938 132.171875 172.746094 L 132.171875 150.648438 C 132.171875 150.644531 132.171875 150.640625 132.171875 150.632812 L 132.171875 150.613281 C 132.171875 150.554688 132.15625 150.496094 132.15625 150.433594 C 132.144531 150.175781 132.128906 149.917969 132.078125 149.65625 C 132.042969 149.5 131.988281 149.351562 131.941406 149.199219 C 131.894531 149.046875 131.859375 148.890625 131.796875 148.738281 C 131.699219 148.503906 131.570312 148.28125 131.441406 148.066406 C 131.40625 148.007812 131.386719 147.945312 131.347656 147.886719 C 131.347656 147.886719 131.34375 147.882812 131.339844 147.878906 C 131.160156 147.613281 130.953125 147.363281 130.726562 147.132812 C 130.613281 147.019531 130.484375 146.929688 130.359375 146.832031 C 130.238281 146.730469 130.121094 146.617188 129.988281 146.527344 C 129.847656 146.433594 129.699219 146.367188 129.550781 146.289062 C 129.414062 146.21875 129.289062 146.132812 129.144531 146.074219 C 128.980469 146.007812 128.808594 145.96875 128.636719 145.917969 C 128.5 145.875 128.371094 145.820312 128.230469 145.796875 C 127.914062 145.730469 127.589844 145.699219 127.265625 145.695312 C 127.265625 145.695312 127.257812 145.695312 127.257812 145.695312 L 105.125 145.695312 C 102.410156 145.695312 100.207031 147.898438 100.207031 150.613281 C 100.207031 153.328125 102.410156 155.53125 105.125 155.53125 L 114.671875 155.53125 C 104.769531 167.480469 100.203125 183.957031 100.203125 197.335938 C 100.203125 214.554688 107.722656 236.949219 124.527344 248.148438 C 125.367188 248.710938 126.3125 248.976562 127.25 248.976562 C 128.835938 248.976562 130.398438 248.207031 131.347656 246.785156 C 132.851562 244.523438 132.242188 241.46875 129.980469 239.964844 C 116.207031 230.78125 110.039062 211.9375 110.039062 197.335938 C 110.039062 185.789062 113.914062 171.613281 122.335938 161.636719 L 122.335938 172.746094 C 122.335938 175.460938 124.539062 177.664062 127.253906 177.664062 Z M 127.253906 177.664062 " fill-opacity="1" fill-rule="nonzero"/><path fill="#276fbf" d="M 137.164062 216.652344 C 138.132812 217.703125 139.453125 218.238281 140.777344 218.238281 C 141.972656 218.238281 143.167969 217.808594 144.113281 216.933594 L 156.761719 205.257812 L 169.410156 216.933594 C 170.359375 217.808594 171.554688 218.238281 172.746094 218.238281 C 174.070312 218.238281 175.390625 217.707031 176.359375 216.652344 C 178.203125 214.65625 178.078125 211.546875 176.082031 209.703125 L 164.015625 198.566406 L 176.082031 187.425781 C 178.078125 185.582031 178.203125 182.472656 176.359375 180.476562 C 174.519531 178.480469 171.40625 178.355469 169.410156 180.199219 L 156.761719 191.871094 L 144.113281 180.195312 C 142.117188 178.355469 139.003906 178.480469 137.164062 180.472656 C 135.320312 182.472656 135.449219 185.582031 137.441406 187.421875 L 149.511719 198.5625 L 137.441406 209.703125 C 135.449219 211.550781 135.320312 214.660156 137.164062 216.652344 Z M 137.164062 216.652344 " fill-opacity="1" fill-rule="nonzero"/><path fill="#276fbf" d="M 227.914062 118.90625 L 209.417969 100.414062 C 209.417969 100.410156 209.414062 100.410156 209.40625 100.402344 C 208.519531 99.523438 207.296875 98.976562 205.941406 98.976562 C 204.589844 98.976562 203.367188 99.523438 202.476562 100.40625 C 202.472656 100.410156 202.46875 100.410156 202.464844 100.417969 L 183.96875 118.910156 C 182.046875 120.832031 182.046875 123.945312 183.96875 125.867188 C 185.890625 127.789062 189.003906 127.789062 190.925781 125.867188 L 201.023438 115.769531 L 201.023438 261.269531 C 201.023438 263.984375 203.226562 266.1875 205.941406 266.1875 C 208.65625 266.1875 210.859375 263.984375 210.859375 261.269531 L 210.859375 115.769531 L 220.957031 125.863281 C 221.917969 126.828125 223.175781 127.304688 224.433594 127.304688 C 225.695312 127.304688 226.953125 126.828125 227.910156 125.863281 C 229.835938 123.945312 229.835938 120.832031 227.914062 118.90625 Z M 227.914062 118.90625 " fill-opacity="1" fill-rule="nonzero"/><path fill="#276fbf" d="M 235.523438 167.472656 C 236.492188 168.523438 237.8125 169.058594 239.140625 169.058594 C 240.332031 169.058594 241.527344 168.628906 242.472656 167.753906 L 255.121094 156.078125 L 267.773438 167.753906 C 268.71875 168.628906 269.914062 169.058594 271.105469 169.058594 C 272.433594 169.058594 273.753906 168.527344 274.722656 167.472656 C 276.5625 165.476562 276.4375 162.367188 274.445312 160.523438 L 262.375 149.386719 L 274.445312 138.246094 C 276.441406 136.402344 276.5625 133.289062 274.722656 131.296875 C 272.878906 129.300781 269.765625 129.175781 267.773438 131.019531 L 255.121094 142.691406 L 242.472656 131.015625 C 240.476562 129.175781 237.367188 129.300781 235.523438 131.292969 C 233.683594 133.289062 233.808594 136.402344 235.800781 138.242188 L 247.871094 149.382812 L 235.800781 160.523438 C 233.808594 162.367188 233.683594 165.480469 235.523438 167.472656 Z M 235.523438 167.472656 " fill-opacity="1" fill-rule="nonzero"/><path fill="#276fbf" d="M 269.878906 182.582031 L 240.367188 182.582031 C 237.652344 182.582031 235.449219 184.785156 235.449219 187.5 C 235.449219 190.214844 237.652344 192.417969 240.367188 192.417969 L 247.746094 192.417969 L 247.746094 226.84375 C 247.746094 229.558594 249.949219 231.761719 252.664062 231.761719 C 255.378906 231.761719 257.582031 229.558594 257.582031 226.84375 L 257.582031 192.417969 L 269.878906 192.417969 C 272.589844 192.417969 274.796875 190.214844 274.796875 187.5 C 274.796875 184.785156 272.589844 182.582031 269.878906 182.582031 Z M 269.878906 182.582031 " fill-opacity="1" fill-rule="nonzero"/><g clip-path="url(#c86dcb6b72)"><path fill="#276fbf" d="M 73.253906 279.453125 C 73.335938 279.878906 73.492188 280.277344 73.683594 280.65625 C 73.726562 280.746094 73.777344 280.832031 73.824219 280.917969 C 74.039062 281.292969 74.285156 281.652344 74.59375 281.957031 C 74.59375 281.957031 74.59375 281.960938 74.597656 281.960938 L 128.695312 336.058594 C 129.636719 337 130.894531 337.5 132.171875 337.5 C 132.804688 337.5 133.445312 337.378906 134.054688 337.125 C 135.894531 336.363281 137.089844 334.570312 137.089844 332.582031 L 137.089844 288.320312 C 137.089844 280.183594 130.46875 273.566406 122.335938 273.566406 L 82.992188 273.566406 L 82.992188 74.386719 C 82.992188 71.671875 85.199219 69.46875 87.910156 69.46875 L 129.714844 69.46875 L 129.714844 74.386719 C 129.714844 83.878906 137.433594 91.597656 146.925781 91.597656 L 230.53125 91.597656 C 240.023438 91.597656 247.746094 83.878906 247.746094 74.386719 L 247.746094 69.46875 L 287.089844 69.46875 C 289.800781 69.46875 292.007812 71.671875 292.007812 74.386719 L 292.007812 322.746094 C 292.007812 325.457031 289.800781 327.664062 287.089844 327.664062 L 149.386719 327.664062 C 146.671875 327.664062 144.46875 329.867188 144.46875 332.582031 C 144.46875 335.296875 146.671875 337.5 149.386719 337.5 L 287.089844 337.5 C 295.222656 337.5 301.84375 330.882812 301.84375 322.746094 L 301.84375 74.386719 C 301.84375 66.25 295.222656 59.632812 287.089844 59.632812 L 247.746094 59.632812 L 247.746094 54.714844 C 247.746094 45.222656 240.023438 37.5 230.53125 37.5 L 146.925781 37.5 C 137.433594 37.5 129.714844 45.222656 129.714844 54.714844 L 129.714844 59.632812 L 87.910156 59.632812 C 79.777344 59.632812 73.15625 66.25 73.15625 74.386719 L 73.15625 278.484375 C 73.15625 278.796875 73.191406 279.101562 73.25 279.398438 C 73.25 279.414062 73.25 279.433594 73.253906 279.453125 Z M 139.550781 54.714844 C 139.550781 50.644531 142.859375 47.335938 146.925781 47.335938 L 230.53125 47.335938 C 234.601562 47.335938 237.910156 50.644531 237.910156 54.714844 L 237.910156 74.386719 C 237.910156 78.453125 234.601562 81.761719 230.53125 81.761719 L 146.925781 81.761719 C 142.859375 81.761719 139.550781 78.453125 139.550781 74.386719 Z M 122.335938 283.402344 C 125.046875 283.402344 127.253906 285.605469 127.253906 288.320312 L 127.253906 320.707031 L 89.945312 283.402344 Z M 122.335938 283.402344 " fill-opacity="1" fill-rule="nonzero"/></g></svg>